<svg width="14" height="14" viewBox="0 0 14 14" fill="none" xmlns="http://www.w3.org/2000/svg">
<path d="M13.5177 12.8106L9.74163 9.0346C10.649 7.94527 11.1015 6.54807 11.0049 5.13367C10.9084 3.71923 10.2702 2.3965 9.22323 1.44058C8.17627 0.484677 6.80103 -0.0307834 5.3837 0.00142322C3.96637 0.0336299 2.61597 0.61103 1.61351 1.61351C0.61103 2.61597 0.0336299 3.96637 0.00142322 5.3837C-0.0307834 6.80103 0.484677 8.17627 1.44058 9.22323C2.3965 10.2702 3.71923 10.9084 5.13367 11.0049C6.54807 11.1015 7.94527 10.649 9.0346 9.74163L12.8106 13.5177L13.5177 12.8106ZM1.0177 5.5177C1.0177 4.62767 1.28162 3.75767 1.77607 3.01763C2.27053 2.2776 2.97337 1.70083 3.79563 1.36024C4.6179 1.01964 5.5227 0.93053 6.3956 1.10416C7.26853 1.2778 8.07033 1.70637 8.69967 2.3357C9.329 2.96507 9.7576 3.76687 9.93123 4.6398C10.1049 5.5127 10.0157 6.4175 9.67517 7.23977C9.33457 8.06203 8.75777 8.76483 8.01777 9.2593C7.27773 9.75377 6.4077 10.0177 5.5177 10.0177C4.32463 10.0164 3.1808 9.54183 2.33717 8.6982C1.49355 7.8546 1.01902 6.71077 1.0177 5.5177Z" fill="black"/>
</svg>
