<svg width="26" height="26" viewBox="0 0 26 26" fill="none" xmlns="http://www.w3.org/2000/svg">
<path d="M24.1143 0.765259H2.23926C1.37631 0.765259 0.676758 1.46481 0.676758 2.32776V24.2028C0.676758 25.0657 1.37631 25.7653 2.23926 25.7653H24.1143C24.9772 25.7653 25.6768 25.0657 25.6768 24.2028V2.32776C25.6768 1.46481 24.9772 0.765259 24.1143 0.765259Z" fill="#F5C518"/>
<path d="M3.80176 9.74963V16.7809H5.75488V9.74963H3.80176Z" fill="black"/>
<path d="M9.92384 9.74963L9.48671 13.0342L9.21512 11.2477C9.13637 10.6755 9.06084 10.1761 8.98852 9.74963H6.53613V16.7809H8.19302L8.19945 12.1378L8.89692 16.7809H10.0765L10.7386 12.0355L10.7434 16.7809H12.3955V9.74963H9.92384Z" fill="black"/>
<path d="M13.1768 16.7809V9.74963H16.2254C16.9148 9.74963 17.4736 10.3043 17.4736 10.9905V15.54C17.4736 16.2253 16.9157 16.7809 16.2254 16.7809H13.1768ZM15.455 11.0151C15.3775 10.9732 15.2293 10.953 15.0137 10.953V15.5666C15.2984 15.5666 15.4735 15.5154 15.5392 15.4084C15.6049 15.303 15.6386 15.0176 15.6386 14.5493V11.823C15.6386 11.5051 15.6268 11.302 15.6049 11.212C15.583 11.1221 15.5341 11.0569 15.455 11.0151Z" fill="black"/>
<path d="M21.1572 11.5101H21.282C21.9833 11.5101 22.5518 12.0593 22.5518 12.7359V15.5551C22.5518 16.2321 21.9835 16.7809 21.282 16.7809H21.1572C20.7281 16.7809 20.3487 16.5753 20.1189 16.2607L20.0064 16.6906H18.2549V9.74963H20.1238V12.0077C20.3652 11.7067 20.7374 11.5101 21.1572 11.5101ZM20.7571 14.9388V13.2727C20.7571 12.9974 20.7394 12.8168 20.7026 12.7336C20.6658 12.6504 20.5188 12.5971 20.4157 12.5971C20.3126 12.5971 20.1536 12.6404 20.1227 12.7136V15.5338C20.158 15.6141 20.3097 15.6588 20.4157 15.6588C20.5217 15.6588 20.6761 15.6155 20.7085 15.5338C20.7409 15.4521 20.7571 15.2528 20.7571 14.9388Z" fill="black"/>
</svg>
