<?xml version="1.0" encoding="utf-8"?>
<svg viewBox="0 0 53 26" fill="none" xmlns="http://www.w3.org/2000/svg">
  <defs>
    <clipPath id="clip0_1_260">
      <rect width="52.4944" height="24.19" fill="white" transform="translate(0.00280762 0.910004)"/>
    </clipPath>
  </defs>
  <g clip-path="url(#clip0_1_260)" transform="matrix(1, 0, 0, 1, -1.7763568394002505e-15, -1.7763568394002505e-15)">
    <path d="M21.4262 12.6503C21.4262 14.3174 21.6036 16.3391 23.2351 18.5382C23.2706 18.5737 23.3416 18.6801 23.3416 18.6801C22.6676 19.8151 21.8518 20.5954 20.7523 20.5954C19.901 20.5954 19.0498 20.1343 18.3404 19.354C17.5955 18.5027 17.2408 17.4032 17.2408 16.2327V0.910004H21.3907L21.4262 12.6503Z" fill="white"/>
    <path d="M41.9629 20.1343H36.9263L41.821 12.9341L36.9263 5.69835H41.9629L46.8222 12.9341L41.9629 20.1343Z" fill="#EBAF00"/>
    <path d="M48.1346 12.1183L52.4973 5.69835H47.4607L45.6517 8.35854L48.1346 12.1183Z" fill="white"/>
    <path d="M45.6517 17.5096L46.503 18.6801C47.3188 19.957 48.3829 20.5954 49.6243 20.5954C50.9366 20.5599 51.8588 19.4249 52.2135 18.9993C52.2135 18.9993 51.5751 18.4318 50.7593 17.4741C49.6598 16.1972 48.2055 13.8563 48.17 13.7499L45.6517 17.5096Z" fill="white"/>
    <path d="M33.202 15.9844C32.3507 16.7647 31.7832 17.1904 30.6127 17.1904C28.52 17.1904 27.3141 15.7007 27.1367 14.0691H38.2386C38.3095 13.8563 38.345 13.5725 38.345 13.1114C38.345 8.60682 35.0464 5.23724 30.7191 5.23724C26.6047 5.23724 23.2351 8.67776 23.2351 12.9695C23.2351 17.2258 26.6047 20.5954 30.8255 20.5954C33.7695 20.5954 36.3232 18.9284 37.7065 15.9844H33.202ZM30.7546 8.64229C32.599 8.64229 33.9823 9.84824 34.3015 11.4444H27.2786C27.6333 9.7773 28.9456 8.64229 30.7546 8.64229Z" fill="white"/>
    <path d="M 9.967 15.988 C 9.116 16.768 8.548 17.194 7.378 17.194 C 5.285 17.194 4.079 15.704 3.902 14.072 L 15.004 14.072 C 15.074 13.86 15.11 13.576 15.11 13.115 C 15.11 8.61 11.811 5.24 7.484 5.24 C 3.37 5.24 0 8.681 0 12.973 C 0 17.229 3.37 20.599 7.59 20.599 C 10.534 20.599 13.088 18.932 14.471 15.988 L 9.967 15.988 Z M 7.52 8.646 C 9.364 8.646 10.747 9.851 11.066 11.448 L 4.044 11.448 C 4.398 9.781 5.711 8.646 7.52 8.646 Z" fill="white"/>
  </g>
</svg>