<svg width="14" height="15" viewBox="0 0 14 15" fill="none" xmlns="http://www.w3.org/2000/svg">
<path d="M13.6666 13.4596L9.89056 9.68356C10.7979 8.59423 11.2504 7.19703 11.1538 5.78263C11.0573 4.3682 10.4191 3.04546 9.37216 2.08955C8.32519 1.13364 6.94996 0.61818 5.53263 0.650387C4.11529 0.682594 2.76489 1.25999 1.76243 2.26247C0.759956 3.26493 0.182556 4.61533 0.150349 6.03266C0.118142 7.45 0.633602 8.82523 1.58951 9.8722C2.54543 10.9192 3.86816 11.5573 5.28259 11.6539C6.69699 11.7504 8.09419 11.298 9.18353 10.3906L12.9596 14.1667L13.6666 13.4596ZM1.16662 6.16666C1.16662 5.27663 1.43054 4.40663 1.92499 3.6666C2.41946 2.92656 3.12229 2.3498 3.94456 2.0092C4.76683 1.66861 5.67163 1.57949 6.54453 1.75313C7.41746 1.92676 8.21926 2.35533 8.84859 2.98466C9.47793 3.61403 9.90653 4.41583 10.0802 5.28876C10.2538 6.16166 10.1647 7.06646 9.82409 7.88873C9.48349 8.711 8.90669 9.4138 8.16669 9.90826C7.42666 10.4027 6.55663 10.6667 5.66663 10.6667C4.47356 10.6653 3.32973 10.1908 2.48609 9.34716C1.64248 8.50356 1.16795 7.35973 1.16662 6.16666Z" fill="white"/>
</svg>
